<svg width="81" height="81" viewBox="0 0 81 81" fill="none" xmlns="http://www.w3.org/2000/svg">
<g clip-path="url(#clip0_173_482)">
<path d="M78.9243 35.4721C77.6131 33.7984 77.1761 31.6005 77.7468 29.5524C78.6614 26.271 77.2192 22.789 74.2521 21.1154C72.4003 20.0708 71.1553 18.2075 70.8989 16.0969C70.4882 12.7152 67.8231 10.0502 64.4413 9.6394C62.3306 9.383 60.4674 8.13831 59.4229 6.28612C57.7493 3.31908 54.2673 1.87658 50.9858 2.79142C48.9377 3.36236 46.7399 2.92533 45.0661 1.61392C42.3844 -0.486866 38.6155 -0.486866 35.9338 1.61392C34.26 2.92517 32.0622 3.3622 30.0141 2.79142C26.7327 1.87689 23.2506 3.31908 21.577 6.28612C20.5325 8.13799 18.6694 9.383 16.5586 9.6394C13.1769 10.05 10.5119 12.7152 10.1011 16.0969C9.84467 18.2077 8.59998 20.0708 6.74779 21.1154C3.78075 22.789 2.33825 26.271 3.25309 29.5524C3.82403 31.6005 3.387 33.7984 2.07559 35.4721C-0.0251964 38.1538 -0.0251964 41.9227 2.07559 44.6045C3.38684 46.2782 3.82387 48.476 3.25309 50.5242C2.33856 53.8056 3.78075 57.2876 6.74779 58.9612C8.59966 60.0058 9.84467 61.8689 10.1011 63.9797C10.5117 67.3614 13.1769 70.0264 16.5586 70.4372C18.6692 70.6936 20.5325 71.9383 21.577 73.7905C23.2506 76.7575 26.7327 78.2 30.0141 77.2852C32.0622 76.7142 34.26 77.1513 35.9338 78.4627C38.6155 80.5635 42.3844 80.5635 45.0661 78.4627C46.7399 77.1514 48.9377 76.7144 50.9858 77.2852C54.2673 78.1997 57.7493 76.7575 59.4229 73.7905C60.4674 71.9386 62.3306 70.6936 64.4413 70.4372C67.8231 70.0264 70.4881 67.3614 70.8989 63.9797C71.1553 61.869 72.3999 60.0058 74.2521 58.9612C77.2192 57.2876 78.6617 53.8056 77.7468 50.5242C77.1759 48.4759 77.6129 46.2782 78.9243 44.6045C81.0251 41.9227 81.0251 38.1538 78.9243 35.4721ZM40.4997 69.8834C24.043 69.8834 10.6545 56.495 10.6545 40.0382C10.6545 23.5815 24.043 10.193 40.4997 10.193C56.9565 10.193 70.3449 23.5815 70.3449 40.0382C70.3449 56.495 56.9565 69.8834 40.4997 69.8834Z" fill="#F4BED0"/>
<circle cx="40.5" cy="40.0383" r="31" fill="#F4BED0"/>
</g>
<path d="M22.5538 62.8864C23.6775 63.3901 25.2449 58.6437 24.2925 57.6243C23.947 57.2449 23.4633 57.3058 23.1349 57.7683C21.6753 59.7495 21.3799 62.3563 22.5538 62.8864Z" fill="#940F3A"/>
<path d="M17.3549 62.4413C17.9145 62.9299 20.2572 63.6121 20.4529 63.3398C20.894 62.7099 19.1373 61.7272 17.418 61.6194C16.9406 61.598 16.9126 62.0517 17.3549 62.4413Z" fill="#940F3A"/>
<path d="M20.8237 69.3654C21.6925 69.5821 22.7971 65.8371 22.1125 64.9962C21.8273 64.6598 21.099 64.506 20.8831 64.7453C19.4648 66.2762 19.4337 69.0186 20.8237 69.3654Z" fill="#940F3A"/>
<path d="M26.3054 65.2045C27.5656 65.6166 28.0494 65.5558 27.9067 64.9897C27.7471 64.3775 24.1129 63.0102 23.8045 63.4498C23.4562 63.9353 24.3768 64.5698 26.3054 65.2045Z" fill="#940F3A"/>
<path d="M59.7079 19.1762C60.1422 17.8577 54.638 16.651 53.6055 17.8374C53.2202 18.2688 53.3446 18.8041 53.9013 19.1186C56.2923 20.5254 59.2496 20.5541 59.7079 19.1762Z" fill="#940F3A"/>
<path d="M59.8117 25.0576C60.2946 24.3734 60.7876 21.6673 60.4596 21.4794C59.7021 21.0579 58.8041 23.1418 58.8827 25.0823C58.9142 25.6201 59.4262 25.5988 59.8117 25.0576Z" fill="#940F3A"/>
<path d="M67.173 20.3643C67.3152 19.365 62.9876 18.561 62.1241 19.4263C61.78 19.7852 61.6921 20.6197 61.9856 20.834C63.8667 22.2467 66.9455 21.9632 67.173 20.3643Z" fill="#940F3A"/>
<path d="M61.8718 14.7005C62.1876 13.2396 62.0633 12.7042 61.445 12.9299C60.7771 13.18 59.6657 17.4138 60.1944 17.7086C60.7793 18.0428 61.3839 16.9369 61.8718 14.7005Z" fill="#940F3A"/>
<g clip-path="url(#clip1_173_482)">
<path d="M42.2858 40.252H38.7134V43.8244H42.2858V40.252Z" fill="#940F3A"/>
<path d="M39.5219 38.2956V28.2733C38.5912 27.5025 37.398 27.0383 36.0979 27.0383C33.131 27.0383 30.7173 29.452 30.7173 32.4189C30.7173 32.5826 30.7258 32.745 30.7406 32.906C29.6649 33.1877 28.6854 33.7684 27.912 34.5963C26.8821 35.699 26.3149 37.1375 26.3149 38.647C26.3149 39.9059 26.7093 41.0743 27.3805 42.0359C26.6888 43.0258 26.3149 44.2039 26.3149 45.4296C26.3149 48.1805 28.1964 50.5001 30.7401 51.1698C30.7255 51.3316 30.7172 51.4942 30.7172 51.6577C30.7172 54.6246 33.1309 57.0383 36.0978 57.0383C37.3979 57.0383 38.5911 56.5741 39.5218 55.8033V47.1411L39.5219 45.7811H38.7138V47.1411H36.7573V45.7811H35.3973V43.8246H36.7573V43.0167H35.3973V41.0602H36.7573V40.2522H35.3973V38.2957H36.7573V36.9356H38.7138V38.2957H39.5219V38.2956Z" fill="#940F3A"/>
<path d="M54.685 38.647C54.685 37.1375 54.1178 35.699 53.0879 34.5964C52.3146 33.7685 51.3351 33.1879 50.2594 32.9061C50.2742 32.745 50.2826 32.5826 50.2826 32.419C50.2827 29.452 47.869 27.0383 44.9021 27.0383C43.6019 27.0383 42.4088 27.5025 41.478 28.2733V38.2956H42.286V36.9356H44.2425V38.2956H45.6025V40.2521H44.2425V41.0601H45.6025V43.0166H44.2425V43.8246H45.6025V45.7811H44.2425V47.1411H42.286V45.7811H41.478V55.8034C42.4088 56.5742 43.6019 57.0383 44.9021 57.0383C47.869 57.0383 50.2826 54.6246 50.2826 51.6578C50.2826 51.4944 50.2744 51.3317 50.2598 51.1699C52.8034 50.5002 54.6849 48.1807 54.6849 45.4296C54.6849 44.2039 54.3109 43.0258 53.6194 42.0359C54.2907 41.0744 54.685 39.906 54.685 38.647Z" fill="#940F3A"/>
</g>
<defs>
<clipPath id="clip0_173_482">
<rect width="80" height="80" fill="white" transform="translate(0.5 0.0383301)"/>
</clipPath>
<clipPath id="clip1_173_482">
<rect width="30" height="30" fill="white" transform="translate(25.5 27.0383)"/>
</clipPath>
</defs>
</svg>
