<svg width="81" height="81" viewBox="0 0 81 81" fill="none" xmlns="http://www.w3.org/2000/svg">
<g clip-path="url(#clip0_173_528)">
<path d="M78.9243 35.4721C77.6131 33.7984 77.1761 31.6005 77.7468 29.5524C78.6614 26.271 77.2192 22.789 74.2521 21.1154C72.4003 20.0708 71.1553 18.2075 70.8989 16.0969C70.4882 12.7152 67.8231 10.0502 64.4413 9.6394C62.3306 9.383 60.4674 8.13831 59.4229 6.28612C57.7493 3.31908 54.2673 1.87658 50.9858 2.79142C48.9377 3.36236 46.7399 2.92533 45.0661 1.61392C42.3844 -0.486866 38.6155 -0.486866 35.9338 1.61392C34.26 2.92517 32.0622 3.3622 30.0141 2.79142C26.7327 1.87689 23.2506 3.31908 21.577 6.28612C20.5325 8.13799 18.6694 9.383 16.5586 9.6394C13.1769 10.05 10.5119 12.7152 10.1011 16.0969C9.84467 18.2077 8.59998 20.0708 6.74779 21.1154C3.78075 22.789 2.33825 26.271 3.25309 29.5524C3.82403 31.6005 3.387 33.7984 2.07559 35.4721C-0.0251964 38.1538 -0.0251964 41.9227 2.07559 44.6045C3.38684 46.2782 3.82387 48.476 3.25309 50.5242C2.33856 53.8056 3.78075 57.2876 6.74779 58.9612C8.59966 60.0058 9.84467 61.8689 10.1011 63.9797C10.5117 67.3614 13.1769 70.0264 16.5586 70.4372C18.6692 70.6936 20.5325 71.9383 21.577 73.7905C23.2506 76.7575 26.7327 78.2 30.0141 77.2852C32.0622 76.7142 34.26 77.1513 35.9338 78.4627C38.6155 80.5635 42.3844 80.5635 45.0661 78.4627C46.7399 77.1514 48.9377 76.7144 50.9858 77.2852C54.2673 78.1997 57.7493 76.7575 59.4229 73.7905C60.4674 71.9386 62.3306 70.6936 64.4413 70.4372C67.8231 70.0264 70.4881 67.3614 70.8989 63.9797C71.1553 61.869 72.3999 60.0058 74.2521 58.9612C77.2192 57.2876 78.6617 53.8056 77.7468 50.5242C77.1759 48.4759 77.6129 46.2782 78.9243 44.6045C81.0251 41.9227 81.0251 38.1538 78.9243 35.4721ZM40.4997 69.8834C24.043 69.8834 10.6545 56.495 10.6545 40.0382C10.6545 23.5815 24.043 10.193 40.4997 10.193C56.9565 10.193 70.3449 23.5815 70.3449 40.0382C70.3449 56.495 56.9565 69.8834 40.4997 69.8834Z" fill="#FFF3D2"/>
<circle cx="40.5" cy="40.0383" r="31" fill="#FFF3D2"/>
</g>
<path d="M18.5538 23.8864C19.6775 24.3901 21.2449 19.6437 20.2925 18.6243C19.947 18.2449 19.4633 18.3058 19.1349 18.7683C17.6753 20.7495 17.3799 23.3563 18.5538 23.8864Z" fill="#5C4C22"/>
<path d="M13.3549 23.4413C13.9145 23.9299 16.2572 24.6121 16.4529 24.3398C16.894 23.7099 15.1373 22.7272 13.418 22.6194C12.9406 22.598 12.9126 23.0517 13.3549 23.4413Z" fill="#5C4C22"/>
<path d="M16.8237 30.3654C17.6925 30.5821 18.7971 26.8371 18.1125 25.9962C17.8273 25.6598 17.099 25.506 16.8831 25.7453C15.4648 27.2762 15.4337 30.0186 16.8237 30.3654Z" fill="#5C4C22"/>
<path d="M22.3054 26.2045C23.5656 26.6166 24.0494 26.5558 23.9067 25.9897C23.7471 25.3775 20.1129 24.0102 19.8045 24.4498C19.4562 24.9353 20.3768 25.5698 22.3054 26.2045Z" fill="#5C4C22"/>
<path d="M59.7079 57.1762C60.1422 55.8577 54.638 54.651 53.6055 55.8374C53.2202 56.2688 53.3446 56.8041 53.9013 57.1186C56.2923 58.5254 59.2496 58.5541 59.7079 57.1762Z" fill="#5C4C22"/>
<path d="M59.8117 63.0576C60.2946 62.3734 60.7876 59.6673 60.4596 59.4794C59.7021 59.0579 58.8041 61.1418 58.8827 63.0823C58.9142 63.6201 59.4262 63.5988 59.8117 63.0576Z" fill="#5C4C22"/>
<path d="M67.173 58.3643C67.3152 57.365 62.9876 56.561 62.1241 57.4263C61.78 57.7852 61.6921 58.6197 61.9856 58.834C63.8667 60.2467 66.9455 59.9632 67.173 58.3643Z" fill="#5C4C22"/>
<path d="M61.8718 52.7005C62.1876 51.2396 62.0633 50.7042 61.445 50.9299C60.7771 51.18 59.6657 55.4138 60.1944 55.7086C60.7793 56.0428 61.3839 54.9369 61.8718 52.7005Z" fill="#5C4C22"/>
<path d="M47.3442 45.1952C48.2934 44.5719 49.5401 45.2519 49.5401 46.3852V48.2127C49.5401 50.0119 48.1376 51.9385 46.4517 52.5052L41.9326 54.0069C41.1392 54.2761 39.8501 54.2761 39.0709 54.0069L34.5517 52.5052C32.8517 51.9385 31.4634 50.0119 31.4634 48.2127V46.371C31.4634 45.2519 32.71 44.5719 33.645 45.181L36.5634 47.0794C37.6826 47.8302 39.0992 48.1985 40.5159 48.1985C41.9326 48.1985 43.3492 47.8302 44.4684 47.0794L47.3442 45.1952Z" fill="#5C4C22"/>
<path d="M51.8041 32.1881L43.3183 26.6206C41.7883 25.6148 39.2666 25.6148 37.7366 26.6206L29.2083 32.1881C26.4742 33.9589 26.4742 37.9681 29.2083 39.7531L31.475 41.2264L37.7366 45.3064C39.2666 46.3123 41.7883 46.3123 43.3183 45.3064L49.5375 41.2264L51.4783 39.9514V44.2864C51.4783 44.8673 51.96 45.3489 52.5408 45.3489C53.1216 45.3489 53.6033 44.8673 53.6033 44.2864V37.3164C54.17 35.4889 53.5891 33.3639 51.8041 32.1881Z" fill="#5C4C22"/>
<defs>
<clipPath id="clip0_173_528">
<rect width="80" height="80" fill="white" transform="translate(0.5 0.0383301)"/>
</clipPath>
</defs>
</svg>
