<svg width="172" height="172" viewBox="0 0 172 172" fill="none" xmlns="http://www.w3.org/2000/svg">
<g clip-path="url(#clip0_132_543)">
<path fill-rule="evenodd" clip-rule="evenodd" d="M99.0581 100.821C101.213 103.661 104.302 105.613 108.493 106.194C121.459 107.993 130.129 101.105 135.537 90.7493C143.434 75.6285 144.263 53.0239 141.594 40.404C141.468 39.8061 140.881 39.4257 140.286 39.5526C139.688 39.6783 139.305 40.2647 139.431 40.8625C142.022 53.1111 141.24 75.0519 133.577 89.7274C128.611 99.2355 120.705 105.657 108.796 104.003C105.252 103.514 102.65 101.858 100.822 99.4609C102.37 98.2424 103.864 96.9961 105.298 95.7236C109.258 92.2097 117.714 81.3133 120.652 71.8262C122.758 65.0201 122.03 58.9461 115.666 56.2864C112.128 54.8088 108.62 55.8496 105.515 58.6191C101.244 62.4242 97.7247 69.613 96.0798 77.2778C94.7092 83.6591 94.6338 90.3566 96.4093 95.6721C96.8019 96.8396 97.2781 97.9437 97.8495 98.9652C76.0598 115.458 44.6532 125.92 17.9655 124.288C17.3573 124.253 16.832 124.714 16.7959 125.325C16.7573 125.935 17.2221 126.459 17.8292 126.496C44.9523 128.152 76.8615 117.558 99.0581 100.821ZM99.627 97.5899C101.079 96.4415 102.482 95.2676 103.831 94.0697C107.624 90.7013 115.724 80.2628 118.539 71.1728C120.267 65.5945 120.029 60.5054 114.813 58.3253C112.073 57.182 109.391 58.1263 106.985 60.2678C104.34 62.6264 102.04 66.3966 100.335 70.7529C97.7464 77.3665 96.5409 85.3328 97.7282 91.8886C98.1032 93.9657 98.7234 95.8991 99.627 97.5899Z" fill="#B5A3F3"/>
<path fill-rule="evenodd" clip-rule="evenodd" d="M50.8273 99.3911C43.4668 110.334 30.0417 119.473 17.7593 124.459C17.1944 124.688 16.9225 125.334 17.1517 125.899C17.381 126.463 18.0253 126.738 18.5902 126.509C31.257 121.368 45.0721 111.906 52.661 100.625C53.001 100.121 52.8666 99.4333 52.3594 99.0921C51.8547 98.752 51.1674 98.8864 50.8273 99.3911Z" fill="#B5A3F3"/>
<path fill-rule="evenodd" clip-rule="evenodd" d="M18.6243 126.78C29.5527 125.723 43.2 131.034 51.7921 137.922C52.2685 138.304 52.9659 138.229 53.3458 137.752C53.7282 137.275 53.6522 136.581 53.1758 136.198C44.1744 128.982 29.861 123.473 18.4115 124.58C17.8046 124.637 17.3586 125.18 17.416 125.787C17.476 126.395 18.0162 126.84 18.6243 126.78Z" fill="#B5A3F3"/>
</g>
<defs>
<clipPath id="clip0_132_543">
<rect width="130" height="130" fill="white" transform="translate(118.566 171.877) rotate(-155.79)"/>
</clipPath>
</defs>
</svg>
