<svg width="32" height="33" viewBox="0 0 32 33" fill="none" xmlns="http://www.w3.org/2000/svg">
<path opacity="0.1" fill-rule="evenodd" clip-rule="evenodd" d="M0 16.2949C0 7.45837 7.16344 0.294922 16 0.294922C24.8366 0.294922 32 7.45837 32 16.2949C32 25.1315 24.8366 32.2949 16 32.2949C7.16344 32.2949 0 25.1315 0 16.2949Z" fill="white"/>
<path d="M16.8576 25.2949H14.3969C13.5542 25.2949 12.8463 24.5871 12.8463 23.7444V18.2163H12.1385C11.2958 18.2163 10.5879 17.5084 10.5879 16.6657V14.5758C10.5879 13.7331 11.2958 13.0253 12.1385 13.0253H12.88V12.3511C12.88 9.24998 14.6665 7.29492 17.5654 7.29492C18.5767 7.29492 19.4531 7.36234 19.8238 7.39605C20.5991 7.49717 21.1722 8.17133 21.1722 8.94661V11.0365C21.1722 11.8792 20.4643 12.5871 19.6216 12.5871H18.4755V13.0253H19.5542C20.3969 13.0253 21.1047 13.7331 21.1047 14.5758C21.1047 14.6769 21.1047 14.7444 21.071 14.8455L20.734 16.868C20.6328 17.6095 19.9587 18.1826 19.1834 18.1826H18.4755V23.7106C18.4418 24.5871 17.734 25.2949 16.8576 25.2949ZM12.1385 14.441C12.071 14.441 12.0036 14.5084 12.0036 14.5758V16.6657C12.0036 16.7331 12.071 16.8005 12.1385 16.8005H13.5879C13.9924 16.8005 14.2958 17.1039 14.2958 17.5084V23.7106C14.2958 23.7781 14.3632 23.8455 14.4306 23.8455H16.8913C16.9587 23.8455 17.0261 23.7781 17.0261 23.7106V17.5084C17.0261 17.1039 17.3295 16.8005 17.734 16.8005H19.1497C19.2171 16.8005 19.2845 16.7331 19.2845 16.6657L19.6216 14.5758C19.6216 14.5084 19.5542 14.441 19.4868 14.441H17.7002C17.2958 14.441 16.9924 14.1376 16.9924 13.7331V12.3174C16.9924 12.014 17.0261 11.8118 17.0935 11.6432C17.1609 11.4747 17.262 11.3736 17.4306 11.3062C17.5991 11.205 17.8351 11.1713 18.1722 11.1713H19.5879C19.6553 11.1713 19.7227 11.1039 19.7227 11.0365V8.94661C19.7227 8.87919 19.6553 8.81178 19.5879 8.81178C19.3182 8.77807 18.4755 8.71065 17.5317 8.71065C14.7002 8.71065 14.262 11.0028 14.262 12.3511V13.7331C14.262 14.1376 13.9587 14.441 13.5542 14.441H12.1385Z" fill="white"/>
</svg>
