<svg width="81" height="81" viewBox="0 0 81 81" fill="none" xmlns="http://www.w3.org/2000/svg">
<g clip-path="url(#clip0_173_508)">
<path d="M78.9243 35.4721C77.6131 33.7984 77.1761 31.6005 77.7468 29.5524C78.6614 26.271 77.2192 22.789 74.2521 21.1154C72.4003 20.0708 71.1553 18.2075 70.8989 16.0969C70.4882 12.7152 67.8231 10.0502 64.4413 9.6394C62.3306 9.383 60.4674 8.13831 59.4229 6.28612C57.7493 3.31908 54.2673 1.87658 50.9858 2.79142C48.9377 3.36236 46.7399 2.92533 45.0661 1.61392C42.3844 -0.486866 38.6155 -0.486866 35.9338 1.61392C34.26 2.92517 32.0622 3.3622 30.0141 2.79142C26.7327 1.87689 23.2506 3.31908 21.577 6.28612C20.5325 8.13799 18.6694 9.383 16.5586 9.6394C13.1769 10.05 10.5119 12.7152 10.1011 16.0969C9.84467 18.2077 8.59998 20.0708 6.74779 21.1154C3.78075 22.789 2.33825 26.271 3.25309 29.5524C3.82403 31.6005 3.387 33.7984 2.07559 35.4721C-0.0251964 38.1538 -0.0251964 41.9227 2.07559 44.6045C3.38684 46.2782 3.82387 48.476 3.25309 50.5242C2.33856 53.8056 3.78075 57.2876 6.74779 58.9612C8.59966 60.0058 9.84467 61.8689 10.1011 63.9797C10.5117 67.3614 13.1769 70.0264 16.5586 70.4372C18.6692 70.6936 20.5325 71.9383 21.577 73.7905C23.2506 76.7575 26.7327 78.2 30.0141 77.2852C32.0622 76.7142 34.26 77.1513 35.9338 78.4627C38.6155 80.5635 42.3844 80.5635 45.0661 78.4627C46.7399 77.1514 48.9377 76.7144 50.9858 77.2852C54.2673 78.1997 57.7493 76.7575 59.4229 73.7905C60.4674 71.9386 62.3306 70.6936 64.4413 70.4372C67.8231 70.0264 70.4881 67.3614 70.8989 63.9797C71.1553 61.869 72.3999 60.0058 74.2521 58.9612C77.2192 57.2876 78.6617 53.8056 77.7468 50.5242C77.1759 48.4759 77.6129 46.2782 78.9243 44.6045C81.0251 41.9227 81.0251 38.1538 78.9243 35.4721ZM40.4997 69.8834C24.043 69.8834 10.6545 56.495 10.6545 40.0382C10.6545 23.5815 24.043 10.193 40.4997 10.193C56.9565 10.193 70.3449 23.5815 70.3449 40.0382C70.3449 56.495 56.9565 69.8834 40.4997 69.8834Z" fill="#FAD4E6"/>
<circle cx="40.5" cy="40.0383" r="31" fill="#FAD4E6"/>
</g>
<path d="M21.5538 59.8864C22.6775 60.3901 24.2449 55.6437 23.2925 54.6243C22.947 54.2449 22.4633 54.3058 22.1349 54.7683C20.6753 56.7495 20.3799 59.3563 21.5538 59.8864Z" fill="#A24571"/>
<path d="M16.3549 59.4413C16.9145 59.9299 19.2572 60.6121 19.4529 60.3398C19.894 59.7099 18.1373 58.7272 16.418 58.6194C15.9406 58.598 15.9126 59.0517 16.3549 59.4413Z" fill="#A24571"/>
<path d="M19.8237 66.3654C20.6925 66.5821 21.7971 62.8371 21.1125 61.9962C20.8273 61.6598 20.099 61.506 19.8831 61.7453C18.4648 63.2762 18.4337 66.0186 19.8237 66.3654Z" fill="#A24571"/>
<path d="M25.3054 62.2045C26.5656 62.6166 27.0494 62.5558 26.9067 61.9897C26.7471 61.3775 23.1129 60.0102 22.8045 60.4498C22.4562 60.9353 23.3768 61.5698 25.3054 62.2045Z" fill="#A24571"/>
<path d="M60.7079 22.1762C61.1422 20.8577 55.638 19.651 54.6055 20.8374C54.2202 21.2688 54.3446 21.8041 54.9013 22.1186C57.2923 23.5254 60.2496 23.5541 60.7079 22.1762Z" fill="#A24571"/>
<path d="M60.8117 28.0576C61.2946 27.3734 61.7876 24.6673 61.4596 24.4794C60.7021 24.0579 59.8041 26.1418 59.8827 28.0823C59.9142 28.6201 60.4262 28.5988 60.8117 28.0576Z" fill="#A24571"/>
<path d="M68.173 23.3643C68.3152 22.365 63.9876 21.561 63.1241 22.4263C62.78 22.7852 62.6921 23.6197 62.9856 23.834C64.8667 25.2467 67.9455 24.9632 68.173 23.3643Z" fill="#A24571"/>
<path d="M62.8718 17.7005C63.1876 16.2396 63.0633 15.7042 62.445 15.9299C61.7771 16.18 60.6657 20.4138 61.1944 20.7086C61.7793 21.0428 62.3839 19.9369 62.8718 17.7005Z" fill="#A24571"/>
<g clip-path="url(#clip1_173_508)">
<path d="M44.25 51.2883H36.75C35.7136 51.2883 34.875 52.1269 34.875 53.1633C34.875 54.1997 35.7136 55.0383 36.75 55.0383H44.25C45.2864 55.0383 46.125 54.1997 46.125 53.1633C46.125 52.1269 45.2864 51.2883 44.25 51.2883Z" fill="#A24571"/>
<path d="M40.5 25.0383C33.2527 25.0383 27.375 30.916 27.375 38.1633C27.375 42.5907 29.5758 46.4963 32.9358 48.8715C33.2053 49.0618 33.6445 49.4133 34.875 49.4133C36.1055 49.4133 45.0994 49.4133 46.125 49.4133C47.1506 49.4133 47.7933 49.0636 48.0623 48.8733C51.4242 46.4982 53.625 42.5907 53.625 38.1633C53.625 30.916 47.7473 25.0383 40.5 25.0383ZM42.375 45.6633H38.625V36.2883C38.625 35.2519 39.4636 34.4133 40.5 34.4133C41.5364 34.4133 42.375 35.2519 42.375 36.2883V45.6633Z" fill="#A24571"/>
</g>
<defs>
<clipPath id="clip0_173_508">
<rect width="80" height="80" fill="white" transform="translate(0.5 0.0383301)"/>
</clipPath>
<clipPath id="clip1_173_508">
<rect width="30" height="30" fill="white" transform="translate(25.5 25.0383)"/>
</clipPath>
</defs>
</svg>
