<svg width="32" height="33" viewBox="0 0 32 33" fill="none" xmlns="http://www.w3.org/2000/svg">
<path opacity="0.1" fill-rule="evenodd" clip-rule="evenodd" d="M0 16.2949C0 7.45837 7.16344 0.294922 16 0.294922C24.8366 0.294922 32 7.45837 32 16.2949C32 25.1315 24.8366 32.2949 16 32.2949C7.16344 32.2949 0 25.1315 0 16.2949Z" fill="white"/>
<path fill-rule="evenodd" clip-rule="evenodd" d="M16.0009 7.76172C13.6834 7.76172 13.3925 7.77185 12.4823 7.81327C11.5739 7.85488 10.9538 7.9987 10.4112 8.20972C9.84993 8.42768 9.37384 8.71924 8.89952 9.19373C8.42485 9.66805 8.13329 10.1441 7.91462 10.7052C7.70307 11.248 7.55906 11.8683 7.51818 12.7763C7.47746 13.6866 7.4668 13.9776 7.4668 16.2951C7.4668 18.6127 7.47711 18.9026 7.51835 19.8129C7.56013 20.7213 7.70395 21.3414 7.9148 21.884C8.13294 22.4452 8.4245 22.9213 8.89899 23.3957C9.37313 23.8703 9.84922 24.1626 10.4101 24.3806C10.9531 24.5916 11.5733 24.7354 12.4816 24.777C13.3918 24.8184 13.6825 24.8286 15.9999 24.8286C18.3176 24.8286 18.6075 24.8184 19.5178 24.777C20.4262 24.7354 21.047 24.5916 21.59 24.3806C22.151 24.1626 22.6264 23.8703 23.1006 23.3957C23.5752 22.9213 23.8668 22.4452 24.0855 21.8842C24.2952 21.3414 24.4392 20.7211 24.4819 19.813C24.5228 18.9028 24.5335 18.6127 24.5335 16.2951C24.5335 13.9776 24.5228 13.6868 24.4819 12.7765C24.4392 11.8681 24.2952 11.248 24.0855 10.7054C23.8668 10.1441 23.5752 9.66805 23.1006 9.19373C22.6259 8.71906 22.1512 8.4275 21.5894 8.20972C21.0454 7.9987 20.425 7.85488 19.5165 7.81327C18.6063 7.77185 18.3165 7.76172 15.9983 7.76172H16.0009ZM15.2354 9.29949C15.4626 9.29913 15.7161 9.29949 16.0009 9.29949C18.2793 9.29949 18.5494 9.30767 19.4491 9.34856C20.2811 9.3866 20.7327 9.52562 21.0335 9.64243C21.4317 9.79709 21.7156 9.98198 22.0141 10.2807C22.3128 10.5793 22.4977 10.8638 22.6527 11.262C22.7695 11.5624 22.9087 12.014 22.9466 12.846C22.9875 13.7456 22.9963 14.0158 22.9963 16.2932C22.9963 18.5705 22.9875 18.8407 22.9466 19.7403C22.9085 20.5723 22.7695 21.0239 22.6527 21.3243C22.498 21.7226 22.3128 22.0061 22.0141 22.3046C21.7154 22.6033 21.4319 22.7882 21.0335 22.9428C20.733 23.0602 20.2811 23.1988 19.4491 23.2369C18.5495 23.2778 18.2793 23.2867 16.0009 23.2867C13.7223 23.2867 13.4522 23.2778 12.5527 23.2369C11.7207 23.1985 11.2691 23.0595 10.9681 22.9427C10.5699 22.788 10.2855 22.6031 9.98679 22.3044C9.68812 22.0058 9.50323 21.722 9.3482 21.3236C9.2314 21.0232 9.0922 20.5716 9.05433 19.7396C9.01344 18.84 9.00527 18.5698 9.00527 16.291C9.00527 14.0122 9.01344 13.7434 9.05433 12.8439C9.09238 12.0119 9.2314 11.5603 9.3482 11.2595C9.50287 10.8613 9.68812 10.5768 9.98679 10.2782C10.2855 9.9795 10.5699 9.7946 10.9681 9.63958C11.2689 9.52225 11.7207 9.38358 12.5527 9.34536C13.3399 9.3098 13.645 9.29913 15.2354 9.29736V9.29949ZM20.556 10.7164C19.9906 10.7164 19.532 11.1745 19.532 11.7401C19.532 12.3054 19.9906 12.7641 20.556 12.7641C21.1213 12.7641 21.58 12.3054 21.58 11.7401C21.58 11.1747 21.1213 10.7164 20.556 10.7164ZM16.0009 11.9128C13.5808 11.9128 11.6187 13.875 11.6187 16.2951C11.6187 18.7152 13.5808 20.6765 16.0009 20.6765C18.4211 20.6765 20.3825 18.7152 20.3825 16.2951C20.3825 13.875 18.4211 11.9128 16.0009 11.9128ZM16.0009 13.4506C17.5718 13.4506 18.8454 14.7241 18.8454 16.2951C18.8454 17.866 17.5718 19.1396 16.0009 19.1396C14.4299 19.1396 13.1564 17.866 13.1564 16.2951C13.1564 14.7241 14.4299 13.4506 16.0009 13.4506Z" fill="white"/>
</svg>
