<svg width="32" height="33" viewBox="0 0 32 33" fill="none" xmlns="http://www.w3.org/2000/svg">
<path opacity="0.1" fill-rule="evenodd" clip-rule="evenodd" d="M0 16.2949C0 7.45837 7.16344 0.294922 16 0.294922C24.8366 0.294922 32 7.45837 32 16.2949C32 25.1315 24.8366 32.2949 16 32.2949C7.16344 32.2949 0 25.1315 0 16.2949Z" fill="white"/>
<g clip-path="url(#clip0_206_1011)">
<path fill-rule="evenodd" clip-rule="evenodd" d="M23 23.2949H20V18.0457C20 16.6057 19.3648 15.8022 18.2255 15.8022C16.9858 15.8022 16.25 16.6394 16.25 18.0457V23.2949H13.25V13.5449H16.25V14.6414C16.25 14.6414 17.1912 12.9897 19.3122 12.9897C21.434 12.9897 23 14.2845 23 16.9635V23.2949ZM9.8315 11.9856C8.81975 11.9856 8 11.1591 8 10.1399C8 9.12139 8.81975 8.29492 9.8315 8.29492C10.8425 8.29492 11.6622 9.12139 11.6622 10.1399C11.663 11.1591 10.8425 11.9856 9.8315 11.9856ZM8 23.2949H11.75V13.5449H8V23.2949Z" fill="white"/>
</g>
<defs>
<clipPath id="clip0_206_1011">
<rect width="15" height="15" fill="white" transform="translate(8 8.29492)"/>
</clipPath>
</defs>
</svg>
