<svg width="32" height="33" viewBox="0 0 32 33" fill="none" xmlns="http://www.w3.org/2000/svg">
<path opacity="0.1" fill-rule="evenodd" clip-rule="evenodd" d="M0 16.2949C0 7.45837 7.16344 0.294922 16 0.294922C24.8366 0.294922 32 7.45837 32 16.2949C32 25.1315 24.8366 32.2949 16 32.2949C7.16344 32.2949 0 25.1315 0 16.2949Z" fill="white"/>
<path fill-rule="evenodd" clip-rule="evenodd" d="M15.5208 13.2995L15.5544 13.8532L14.9948 13.7854C12.9579 13.5255 11.1784 12.6442 9.66756 11.1641L8.92891 10.4297L8.73865 10.972C8.33575 12.181 8.59316 13.4577 9.43253 14.3164C9.8802 14.791 9.77948 14.8588 9.00725 14.5763C8.73865 14.4859 8.50363 14.4181 8.48124 14.452C8.4029 14.5311 8.6715 15.5593 8.88414 15.966C9.17513 16.531 9.76828 17.0846 10.4174 17.4123L10.9658 17.6721L10.3167 17.6834C9.68994 17.6834 9.66756 17.6947 9.73471 17.932C9.95854 18.6664 10.8427 19.446 11.8276 19.785L12.5214 20.0223L11.9171 20.3838C11.0218 20.9036 9.96973 21.1973 8.91772 21.2199C8.41409 21.2312 8 21.2764 8 21.3103C8 21.4233 9.36538 22.056 10.16 22.3046C12.5438 23.039 15.3753 22.7226 17.5017 21.4685C19.0126 20.5759 20.5235 18.802 21.2286 17.0846C21.6091 16.1694 21.9896 14.4972 21.9896 13.695C21.9896 13.1752 22.0232 13.1075 22.6499 12.486C23.0192 12.1245 23.3662 11.729 23.4333 11.616C23.5452 11.4014 23.534 11.4014 22.9633 11.5934C22.012 11.9324 21.8777 11.8872 22.3477 11.3788C22.6947 11.0172 23.1088 10.3619 23.1088 10.1698C23.1088 10.1359 22.9409 10.1924 22.7506 10.2941C22.5492 10.4071 22.1015 10.5765 21.7658 10.6782L21.1614 10.8703L20.613 10.4975C20.3108 10.2941 19.8856 10.0681 19.6617 10.0003C19.0909 9.84213 18.218 9.86473 17.7032 10.0455C16.3042 10.5539 15.4201 11.8646 15.5208 13.2995Z" fill="white"/>
</svg>
