<svg width="255" height="19" viewBox="0 0 255 19" fill="none" xmlns="http://www.w3.org/2000/svg">
<path d="M235.449 2.30988C235.449 2.30988 233.538 2.68165 229.715 3.4252C225.893 4.16874 223.982 4.54051 223.982 4.54051C223.982 4.54051 221.218 4.90479 215.691 5.63333C210.165 6.36187 204.217 6.91714 197.848 7.29913C191.48 7.68112 184.798 7.84213 177.804 7.78218C170.81 7.72222 163.444 7.45739 155.705 6.9877C147.966 6.51802 140.224 6.05373 132.478 5.59484C124.733 5.13595 116.768 4.83153 108.583 4.68157C100.398 4.53162 92.0973 4.58863 83.6816 4.85259C75.266 5.11656 67.0509 5.59508 59.0365 6.28817C51.022 6.98125 43.6443 7.87127 36.9034 8.95821C30.1625 10.0452 24.6664 11.0912 20.415 12.0965C16.1636 13.1017 13.018 13.997 10.9781 14.7825C8.9383 15.568 8.16628 15.7683 8.66206 15.3836C9.15783 14.9988 11.2769 14.4186 15.0191 13.6429C18.7614 12.8673 23.5952 12.0051 29.5206 11.0565C35.4459 10.1078 42.0064 9.26693 49.2022 8.53374C56.3979 7.80054 64.0007 7.27098 72.0107 6.94506C80.0207 6.61913 88.2471 6.55055 96.69 6.73932C105.133 6.92809 113.615 7.2867 122.138 7.81517C130.66 8.34363 138.929 8.83573 146.947 9.29145C154.964 9.74717 162.707 10.0594 170.176 10.2282C177.644 10.3971 184.916 10.3666 191.99 10.1369C199.065 9.9072 206.086 9.4477 213.055 8.75841C220.023 8.06911 226.214 7.30064 231.626 6.45299C237.038 5.60534 241.244 4.82216 244.242 4.10345C247.24 3.38473 249.241 3.17843 250.245 3.48452C251.249 3.79062 251.002 3.38368 249.506 2.26369C248.009 1.1437 247.263 0.582193 247.268 0.579172C247.273 0.576151 247.278 0.57313 247.282 0.570109C247.287 0.567088 248.74 0.73204 251.64 1.06496C254.541 1.39789 255.563 2.36717 254.708 3.97282C253.852 5.57847 251.658 6.85836 248.126 7.81251C244.595 8.76665 239.941 9.69074 234.165 10.5848C228.389 11.4788 221.796 12.2846 214.387 13.0022C206.977 13.7198 199.545 14.1942 192.092 14.4254C184.639 14.6566 177.061 14.6829 169.358 14.5043C161.655 14.3257 153.776 14.007 145.721 13.5483C137.667 13.0895 129.511 12.6011 121.255 12.0828C112.999 11.5646 104.864 11.2086 96.8521 11.0148C88.8398 10.8209 81.0317 10.8718 73.4278 11.1673C65.8238 11.4629 58.6018 11.9527 51.7616 12.6368C44.9214 13.3209 38.6501 14.1151 32.9478 15.0192C27.2455 15.9233 22.1583 16.8091 17.6862 17.6768C13.214 18.5444 9.70856 18.9853 7.16976 18.9995C4.63096 19.0137 2.67466 18.6976 1.30087 18.0512C-0.0729327 17.4047 -0.358616 16.3702 0.443816 14.9477C1.24625 13.5251 2.99595 12.3143 5.69292 11.3154C8.38989 10.3164 12.0789 9.28331 16.7599 8.21599C21.4409 7.14867 27.3915 6.06839 34.6117 4.97513C41.8318 3.88188 49.636 3.01997 58.0243 2.38943C66.4126 1.75888 74.9644 1.36877 83.6797 1.21912C92.395 1.06947 100.939 1.14395 109.311 1.44256C117.684 1.74118 125.724 2.19794 133.431 2.81285C141.138 3.42776 148.748 4.0548 156.262 4.69399C163.775 5.33317 170.939 5.7741 177.754 6.01677C184.568 6.25944 191.128 6.28521 197.435 6.09408C203.741 5.90295 209.688 5.53234 215.275 4.98225L235.449 2.30988Z" fill="#CCBFF6"/>
</svg>
